<svg width="34" height="24" viewBox="0 0 34 24" fill="none" xmlns="http://www.w3.org/2000/svg">
<rect x="0.25" y="0.25" width="33.5" height="23.5" rx="1.75" fill="white" stroke="#F5F5F5" stroke-width="0.5"/>
<mask id="mask0_87_17" style="mask-type:luminance" maskUnits="userSpaceOnUse" x="0" y="0" width="34" height="24">
<rect x="0.25" y="0.25" width="33.5" height="23.5" rx="1.75" fill="white" stroke="white" stroke-width="0.5"/>
</mask>
<g mask="url(#mask0_87_17)">
<rect x="24.2857" width="9.71429" height="24" fill="#FF3131"/>
<path fill-rule="evenodd" clip-rule="evenodd" d="M0 24H9.71429V0H0V24Z" fill="#FF3131"/>
<path fill-rule="evenodd" clip-rule="evenodd" d="M19.397 11.2312C19.1629 11.4626 18.7707 11.2506 18.836 10.928L19.4286 8.00002L17.8095 8.80002L17 6.40002L16.1905 8.80002L14.5714 8.00002L15.164 10.928C15.2293 11.2506 14.8371 11.4626 14.603 11.2312L13.9962 10.6316C13.8664 10.5033 13.6574 10.5033 13.5276 10.6316L12.9524 11.2L11.3333 10.4L12.1429 12L11.5732 12.5629C11.4412 12.6934 11.4412 12.9066 11.5732 13.0371L13.7619 15.2H16.1905L16.5952 17.6H17.4048L17.8095 15.2H20.2381L22.4267 13.0371C22.5588 12.9066 22.5588 12.6934 22.4267 12.5629L21.8571 12L22.6667 10.4L21.0476 11.2L20.4724 10.6316C20.3425 10.5033 20.1336 10.5033 20.0038 10.6316L19.397 11.2312Z" fill="#FF3131"/>
</g>
</svg>
