<svg width="34" height="24" viewBox="0 0 34 24" fill="none" xmlns="http://www.w3.org/2000/svg">
<rect width="34" height="24" rx="2" fill="white"/>
<mask id="mask0_91_151" style="mask-type:luminance" maskUnits="userSpaceOnUse" x="0" y="0" width="34" height="24">
<rect width="34" height="24" rx="2" fill="white"/>
</mask>
<g mask="url(#mask0_91_151)">
<rect width="34" height="24" fill="#F1361D"/>
<path d="M14.5358 13.3659L15.191 14.3513L13.9986 14.3649L13.0016 15.0124L12.9879 13.8337L12.3326 12.8493L13.525 12.8347L14.5221 12.1872L14.5358 13.3659ZM16.3307 9.612L17.5172 9.48212L16.9879 10.5388L17.1188 11.7106L16.0494 11.1882L14.8639 11.3181L15.3932 10.2614L15.2623 9.08954L16.3307 9.612ZM16.9723 6.19305L17.5924 7.19989L16.4 7.17255L15.3805 7.78583L15.4088 6.60712L14.7887 5.60028L15.9811 5.62762L16.9996 5.01434L16.9723 6.19305ZM14.1168 2.48114L15.2926 2.67938L14.4899 3.55048L14.2887 4.71259L13.4068 3.91864L12.2311 3.72137L13.0348 2.8493L13.235 1.68719L14.1168 2.48114Z" fill="#FFDC42"/>
<path fill-rule="evenodd" clip-rule="evenodd" d="M8.09524 9.87201L5.24028 11.8833L6.29366 8.57849L3.47582 6.51673L6.9818 6.48553L8.09524 3.20001L9.20867 6.48553L12.7147 6.51673L9.89681 8.57849L10.9502 11.8833L8.09524 9.87201Z" fill="#FFDC42"/>
</g>
</svg>
