<svg width="34" height="24" viewBox="0 0 34 24" fill="none" xmlns="http://www.w3.org/2000/svg">
<rect width="34" height="24" rx="2" fill="white"/>
<mask id="mask0_87_76" style="mask-type:luminance" maskUnits="userSpaceOnUse" x="0" y="0" width="34" height="24">
<rect width="34" height="24" rx="2" fill="white"/>
</mask>
<g mask="url(#mask0_87_76)">
<rect width="34" height="24" fill="#30C6E0"/>
<path fill-rule="evenodd" clip-rule="evenodd" d="M17 16.8C19.6825 16.8 21.8571 14.651 21.8571 12C21.8571 9.34905 19.6825 7.20001 17 7.20001C14.3175 7.20001 12.1429 9.34905 12.1429 12C12.1429 14.651 14.3175 16.8 17 16.8Z" fill="#FFCD4B"/>
<path d="M19.4829 6.90405L22.5523 5.11987L21.4751 8.47339L25.023 8.1814L22.5806 10.741L25.9048 11.9998L22.5806 13.2585L25.023 15.8181L21.4751 15.5271L22.5523 18.8806L19.4829 17.0964L18.982 20.5798L16.9995 17.656L15.0181 20.5798L14.5161 17.0964L11.4478 18.8806L12.5249 15.5271L8.97707 15.8181L11.4195 13.2585L8.09524 11.9998L11.4195 10.741L8.97707 8.1814L12.5249 8.47339L11.4478 5.11987L14.5161 6.90405L15.0181 3.42065L16.9995 6.34351L18.982 3.42065L19.4829 6.90405ZM16.9995 6.40015C13.8702 6.40039 11.3337 8.90724 11.3335 11.9998C11.3335 15.0924 13.8701 17.6001 16.9995 17.6003C20.1291 17.6003 22.6665 15.0926 22.6665 11.9998C22.6664 8.90708 20.1291 6.40015 16.9995 6.40015Z" fill="#FFCD4B"/>
<path d="M2.90518 20.8002C3.08904 20.8004 3.23812 20.9493 3.23819 21.1332V22.0668C3.23812 22.2507 3.08904 22.3996 2.90518 22.3998H1.95206C1.76815 22.3996 1.61912 22.2507 1.61905 22.0668V21.1332C1.61912 20.9493 1.76816 20.8003 1.95206 20.8002H2.90518ZM4.52335 19.1996C4.70744 19.1996 4.85733 19.3495 4.85733 19.5336V20.4662C4.85733 20.6503 4.70744 20.8002 4.52335 20.8002H3.5712C3.38721 20.8 3.23819 20.6502 3.23819 20.4662V19.5336C3.23819 19.3496 3.38721 19.1997 3.5712 19.1996H4.52335ZM2.90518 17.6C3.08898 17.6002 3.23801 17.7492 3.23819 17.933V18.8666C3.23819 19.0505 3.08908 19.1994 2.90518 19.1996H1.95206C1.76811 19.1994 1.61905 19.0506 1.61905 18.8666V17.933C1.61922 17.7491 1.76822 17.6002 1.95206 17.6H2.90518ZM4.52335 16.0004C4.70744 16.0004 4.85733 16.1493 4.85733 16.3334V17.267C4.85715 17.4509 4.70733 17.6 4.52335 17.6H3.5712C3.38732 17.5999 3.23837 17.4508 3.23819 17.267V16.3334C3.23819 16.1494 3.38721 16.0005 3.5712 16.0004H4.52335ZM2.90518 14.3998C3.08908 14.4 3.23819 14.5498 3.23819 14.7338V15.6664C3.23819 15.8503 3.08908 16.0001 2.90518 16.0004H1.95206C1.76811 16.0002 1.61905 15.8504 1.61905 15.6664V14.7338C1.61905 14.5498 1.76811 14.4 1.95206 14.3998H2.90518ZM4.52335 12.8002C4.7074 12.8002 4.85726 12.9491 4.85733 13.1332V14.0668C4.85726 14.2508 4.7074 14.3998 4.52335 14.3998H3.5712C3.38725 14.3997 3.23826 14.2507 3.23819 14.0668V13.1332C3.23826 12.9492 3.38725 12.8003 3.5712 12.8002H4.52335ZM2.90518 11.1996C3.08908 11.1998 3.23819 11.3496 3.23819 11.5336V12.4662C3.23819 12.6501 3.08908 12.7999 2.90518 12.8002H1.95206C1.76811 12.8 1.61905 12.6502 1.61905 12.4662V11.5336C1.61905 11.3496 1.76811 11.1998 1.95206 11.1996H2.90518ZM4.52335 9.59998C4.70733 9.59998 4.85715 9.74904 4.85733 9.93298V10.8666C4.85733 11.0507 4.70744 11.1996 4.52335 11.1996H3.5712C3.38721 11.1995 3.23819 11.0506 3.23819 10.8666V9.93298C3.23837 9.74912 3.38732 9.6001 3.5712 9.59998H4.52335ZM2.90518 8.00037C3.08908 8.00059 3.23819 8.14942 3.23819 8.33337V9.26697C3.23801 9.45077 3.08898 9.59975 2.90518 9.59998H1.95206C1.76822 9.5998 1.61922 9.4508 1.61905 9.26697V8.33337C1.61905 8.14939 1.76811 8.00054 1.95206 8.00037H2.90518ZM4.52335 6.39978C4.70744 6.39978 4.85733 6.54967 4.85733 6.73376V7.66638C4.85733 7.85048 4.70744 8.00037 4.52335 8.00037H3.5712C3.38721 8.00024 3.23819 7.8504 3.23819 7.66638V6.73376C3.23819 6.54975 3.38721 6.39991 3.5712 6.39978H4.52335ZM2.90518 4.80017C3.08904 4.8004 3.23812 4.94928 3.23819 5.13318V6.06677C3.23812 6.25067 3.08904 6.39955 2.90518 6.39978H1.95206C1.76815 6.3996 1.61912 6.2507 1.61905 6.06677V5.13318C1.61912 4.94925 1.76816 4.80035 1.95206 4.80017H2.90518ZM4.52335 3.19958C4.70744 3.19958 4.85733 3.34947 4.85733 3.53357V4.46619C4.85733 4.65028 4.70744 4.80017 4.52335 4.80017H3.5712C3.38721 4.80005 3.23819 4.6502 3.23819 4.46619V3.53357C3.23819 3.34955 3.38721 3.19971 3.5712 3.19958H4.52335ZM2.90518 1.59998C3.08898 1.6002 3.23801 1.74918 3.23819 1.93298V2.86658C3.23819 3.05053 3.08908 3.19936 2.90518 3.19958H1.95206C1.76811 3.19941 1.61905 3.05056 1.61905 2.86658V1.93298C1.61922 1.74915 1.76822 1.60015 1.95206 1.59998H2.90518Z" fill="#FFCD4B"/>
</g>
</svg>
