<svg width="34" height="24" viewBox="0 0 34 24" fill="none" xmlns="http://www.w3.org/2000/svg">
<rect width="34" height="24" rx="2" fill="white"/>
<mask id="mask0_91_162" style="mask-type:luminance" maskUnits="userSpaceOnUse" x="0" y="0" width="34" height="24">
<rect width="34" height="24" rx="2" fill="white"/>
</mask>
<g mask="url(#mask0_91_162)">
<rect width="34" height="24" fill="#E92434"/>
<path fill-rule="evenodd" clip-rule="evenodd" d="M23.0968 12.922L21.6095 14.704L21.7108 12.3963L19.5362 11.5491L21.7885 10.9312L21.9318 8.62558L23.2225 10.5514L25.4856 9.9737L24.031 11.7819L25.2864 13.7304L23.0968 12.922V12.922V12.922V12.922Z" fill="white"/>
<path d="M15.3814 4.79999C17.7181 4.80012 19.7963 5.88873 21.1294 7.57928C20.1009 6.84103 18.809 6.39961 17.4048 6.3996C14.0517 6.3996 11.3335 8.90739 11.3335 12.0002C11.3336 15.0929 14.0517 17.5998 17.4048 17.5998C18.8091 17.5998 20.1009 17.1585 21.1294 16.4201C19.7963 18.1109 17.7183 19.2002 15.3814 19.2004C11.3576 19.2004 8.09534 15.9765 8.09524 12.0002C8.09524 8.02373 11.3576 4.79999 15.3814 4.79999Z" fill="white"/>
</g>
</svg>
