<svg width="34" height="24" viewBox="0 0 34 24" fill="none" xmlns="http://www.w3.org/2000/svg">
<rect width="34" height="24" rx="2" fill="white"/>
<mask id="mask0_87_118" style="mask-type:luminance" maskUnits="userSpaceOnUse" x="0" y="0" width="34" height="24">
<rect width="34" height="24" rx="2" fill="white"/>
</mask>
<g mask="url(#mask0_87_118)">
<path d="M34 24H0V22.4004H34V24ZM34 20.7998H0V19.2002H34V20.7998ZM34 17.5996H0V16H34V17.5996ZM34 14.4004H0V12.7998H34V14.4004ZM34 11.2002H0V9.59961H34V11.2002ZM34 8H0V6.40039H34V8ZM34 4.7998H0V3.2002H34V4.7998ZM34 1.59961H0V0H34V1.59961Z" fill="#D02F44"/>
<rect width="14.5714" height="11.2" fill="#46467F"/>
<g filter="url(#filter0_d_87_118)">
<path d="M2.42862 8.00037C2.87569 8.00039 3.23819 8.35836 3.23819 8.80017C3.23808 9.24189 2.87562 9.59995 2.42862 9.59998C1.9816 9.59998 1.61916 9.24191 1.61905 8.80017C1.61905 8.35834 1.98153 8.00037 2.42862 8.00037ZM5.6669 8.00037C6.11388 8.00049 6.47647 8.35842 6.47647 8.80017C6.47636 9.24183 6.11382 9.59985 5.6669 9.59998C5.21988 9.59998 4.85744 9.24191 4.85733 8.80017C4.85733 8.35834 5.21981 8.00037 5.6669 8.00037ZM8.90518 8.00037C9.35208 8.00059 9.71475 8.35848 9.71475 8.80017C9.71465 9.24177 9.35201 9.59975 8.90518 9.59998C8.45816 9.59998 8.09572 9.24191 8.09561 8.80017C8.09561 8.35834 8.45809 8.00037 8.90518 8.00037ZM12.1425 8.00037C12.5896 8.00037 12.9521 8.35834 12.9521 8.80017C12.952 9.24191 12.5895 9.59998 12.1425 9.59998C11.6956 9.59978 11.333 9.24179 11.3329 8.80017C11.3329 8.35847 11.6956 8.00057 12.1425 8.00037ZM4.04776 6.39978C4.49465 6.39985 4.85712 6.75798 4.85733 7.19958C4.85733 7.64137 4.49478 8.00029 4.04776 8.00037C3.60067 8.00037 3.23819 7.64141 3.23819 7.19958C3.2384 6.75794 3.6008 6.39978 4.04776 6.39978ZM7.28604 6.39978C7.73285 6.39995 8.0954 6.75804 8.09561 7.19958C8.09561 7.64131 7.73298 8.00019 7.28604 8.00037C6.83895 8.00037 6.47647 7.64141 6.47647 7.19958C6.47668 6.75794 6.83909 6.39978 7.28604 6.39978ZM10.5233 6.39978C10.9703 6.39978 11.3327 6.75794 11.3329 7.19958C11.3329 7.64141 10.9704 8.00037 10.5233 8.00037C10.0765 8.00012 9.71475 7.64126 9.71475 7.19958C9.71497 6.75809 10.0766 6.40003 10.5233 6.39978ZM2.42862 4.80017C2.87569 4.8002 3.23819 5.15816 3.23819 5.59998C3.23819 6.04179 2.87569 6.39976 2.42862 6.39978C1.98153 6.39978 1.61905 6.0418 1.61905 5.59998C1.61905 5.15815 1.98153 4.80017 2.42862 4.80017ZM5.6669 4.80017C6.11388 4.8003 6.47647 5.15822 6.47647 5.59998C6.47647 6.04173 6.11388 6.39966 5.6669 6.39978C5.21981 6.39978 4.85733 6.0418 4.85733 5.59998C4.85733 5.15815 5.21981 4.80017 5.6669 4.80017ZM8.90518 4.80017C9.35208 4.80039 9.71475 5.15829 9.71475 5.59998C9.71475 6.04167 9.35208 6.39956 8.90518 6.39978C8.45809 6.39978 8.09561 6.0418 8.09561 5.59998C8.09561 5.15815 8.45809 4.80017 8.90518 4.80017ZM12.1425 4.80017C12.5896 4.80017 12.9521 5.15815 12.9521 5.59998C12.9521 6.0418 12.5896 6.39978 12.1425 6.39978C11.6956 6.39958 11.3329 6.04168 11.3329 5.59998C11.3329 5.15827 11.6956 4.80037 12.1425 4.80017ZM4.04776 3.19958C4.49478 3.19966 4.85733 3.55858 4.85733 4.00037C4.85712 4.44197 4.49465 4.8001 4.04776 4.80017C3.6008 4.80017 3.2384 4.44201 3.23819 4.00037C3.23819 3.55854 3.60067 3.19958 4.04776 3.19958ZM7.28604 3.19958C7.73298 3.19976 8.09561 3.55865 8.09561 4.00037C8.0954 4.44191 7.73285 4.8 7.28604 4.80017C6.83909 4.80017 6.47668 4.44201 6.47647 4.00037C6.47647 3.55854 6.83895 3.19958 7.28604 3.19958ZM10.5233 3.19958C10.9704 3.19958 11.3329 3.55854 11.3329 4.00037C11.3327 4.44201 10.9703 4.80017 10.5233 4.80017C10.0766 4.79992 9.71497 4.44186 9.71475 4.00037C9.71475 3.55869 10.0765 3.19983 10.5233 3.19958ZM2.42862 1.59998C2.87562 1.6 3.23808 1.95806 3.23819 2.39978C3.23819 2.84159 2.87569 3.19956 2.42862 3.19958C1.98153 3.19958 1.61905 2.84161 1.61905 2.39978C1.61916 1.95804 1.9816 1.59998 2.42862 1.59998ZM5.6669 1.59998C6.11382 1.6001 6.47636 1.95812 6.47647 2.39978C6.47647 2.84153 6.11388 3.19946 5.6669 3.19958C5.21981 3.19958 4.85733 2.84161 4.85733 2.39978C4.85744 1.95804 5.21988 1.59998 5.6669 1.59998ZM8.90518 1.59998C9.35201 1.6002 9.71465 1.95818 9.71475 2.39978C9.71475 2.84147 9.35208 3.19936 8.90518 3.19958C8.45809 3.19958 8.09561 2.84161 8.09561 2.39978C8.09572 1.95804 8.45816 1.59998 8.90518 1.59998ZM12.1425 1.59998C12.5895 1.59998 12.952 1.95804 12.9521 2.39978C12.9521 2.84161 12.5896 3.19958 12.1425 3.19958C11.6956 3.19939 11.3329 2.84149 11.3329 2.39978C11.333 1.95816 11.6956 1.60017 12.1425 1.59998Z" fill="url(#paint0_linear_87_118)"/>
</g>
</g>
<defs>
<filter id="filter0_d_87_118" x="1.61905" y="1.59998" width="11.333" height="9" filterUnits="userSpaceOnUse" color-interpolation-filters="sRGB">
<feFlood flood-opacity="0" result="BackgroundImageFix"/>
<feColorMatrix in="SourceAlpha" type="matrix" values="0 0 0 0 0 0 0 0 0 0 0 0 0 0 0 0 0 0 127 0" result="hardAlpha"/>
<feOffset dy="1"/>
<feColorMatrix type="matrix" values="0 0 0 0 0 0 0 0 0 0 0 0 0 0 0 0 0 0 0.06 0"/>
<feBlend mode="normal" in2="BackgroundImageFix" result="effect1_dropShadow_87_118"/>
<feBlend mode="normal" in="SourceGraphic" in2="effect1_dropShadow_87_118" result="shape"/>
</filter>
<linearGradient id="paint0_linear_87_118" x1="1.61905" y1="1.59998" x2="1.61905" y2="9.59998" gradientUnits="userSpaceOnUse">
<stop stop-color="white"/>
<stop offset="1" stop-color="#F0F0F0"/>
</linearGradient>
</defs>
</svg>
