<svg width="34" height="25" viewBox="0 0 34 25" fill="none" xmlns="http://www.w3.org/2000/svg">
<rect width="34" height="25" rx="2" fill="white"/>
<mask id="mask0_102_211" style="mask-type:luminance" maskUnits="userSpaceOnUse" x="0" y="0" width="34" height="25">
<rect width="34" height="25" rx="2" fill="white"/>
</mask>
<g mask="url(#mask0_102_211)">
<rect width="34" height="25" fill="#19BFBF"/>
<path d="M16.9995 3.33331C21.9175 3.33331 25.9048 7.4377 25.9048 12.5003C25.9046 17.5628 21.9174 21.6663 16.9995 21.6663C12.0819 21.6661 8.09541 17.5626 8.09524 12.5003C8.09524 7.43785 12.0818 3.33357 16.9995 3.33331ZM14.5913 13.3333C14.7095 16.1434 15.4199 18.6269 16.5308 19.9827C16.6858 19.9929 16.842 20.0003 16.9995 20.0003C17.1571 20.0003 17.3133 19.9929 17.4683 19.9827C18.5794 18.627 19.2905 16.1437 19.4087 13.3333H14.5913ZM9.76028 13.3333C10.0608 16.1316 11.8566 18.4635 14.3072 19.4681C13.5186 17.8134 13.059 15.6587 12.9702 13.3333H9.76028ZM21.0298 13.3333C20.941 15.6587 20.4815 17.8134 19.6929 19.4681C22.1434 18.4634 23.9392 16.1315 24.2398 13.3333H21.0298ZM16.9995 5.00031C16.8417 5.00032 16.6851 5.00672 16.5298 5.01691C15.4191 6.37277 14.7095 8.85659 14.5913 11.6663H19.4087C19.2905 8.85628 18.5802 6.37267 17.4693 5.01691C17.3139 5.00673 17.1574 5.00031 16.9995 5.00031ZM19.6929 5.53156C20.4815 7.18617 20.941 9.34092 21.0298 11.6663H24.2398C23.939 8.86832 22.1434 6.536 19.6929 5.53156ZM14.3062 5.53156C11.8561 6.5361 10.061 8.86849 9.76028 11.6663H12.9702C13.059 9.34109 13.5177 7.18612 14.3062 5.53156Z" fill="white"/>
</g>
</svg>
