<svg width="43" height="13" viewBox="0 0 43 13" fill="none" xmlns="http://www.w3.org/2000/svg">
<path d="M30.886 5.47998V12.128H34.578V8.19098H38.761C39.5983 8.18337 40.4131 7.9196 41.096 7.43513C41.7789 6.95066 42.2972 6.26871 42.581 5.48098L30.886 5.47998Z" fill="#37A72E"/>
<path d="M30.394 0.00396729C30.609 2.71797 33.179 4.86697 36.32 4.86697H42.738C42.786 4.6203 42.8106 4.36363 42.812 4.09697C42.8118 3.01687 42.3847 1.98062 41.6239 1.21397C40.863 0.447327 39.83 0.0124097 38.75 0.00396729H30.394Z" fill="url(#paint0_linear_119_10)"/>
<path d="M24.929 4.796C24.9532 4.75393 24.9904 4.72085 25.035 4.70173C25.0796 4.68262 25.1292 4.67851 25.1763 4.69001C25.2234 4.70151 25.2656 4.72801 25.2964 4.76552C25.3271 4.80303 25.3449 4.84952 25.347 4.898V12.066H29.039V0.00399971H25.347C24.879 0.0229997 24.351 0.363 24.152 0.784L21.218 7.089C21.211 7.113 21.198 7.136 21.188 7.159C21.165 7.1917 21.1344 7.21839 21.0989 7.23684C21.0634 7.25528 21.024 7.26494 20.984 7.265C20.9517 7.26513 20.9196 7.25886 20.8897 7.24654C20.8598 7.23423 20.8326 7.21611 20.8098 7.19324C20.7869 7.17037 20.7688 7.1432 20.7565 7.1133C20.7441 7.08339 20.7379 7.05134 20.738 7.019V0.00399971H17.047V12.066H20.737C21.199 12.043 21.714 11.703 21.914 11.285L24.929 4.816C24.922 4.812 24.929 4.804 24.929 4.796ZM11.144 5.007L8.984 12.066H6.324L4.172 5C4.16153 4.94372 4.13128 4.89303 4.08672 4.85709C4.04216 4.82115 3.98622 4.80232 3.929 4.804C3.86587 4.80453 3.80549 4.82991 3.76094 4.87464C3.71639 4.91938 3.69126 4.97987 3.691 5.043V12.058H0V0H4.109C4.785 0 5.499 0.526999 5.699 1.175L7.496 7.05C7.586 7.347 7.726 7.34 7.82 7.05L9.617 1.175C9.817 0.522999 10.527 0 11.207 0H15.317V12.058H11.625V5.039C11.625 4.97455 11.5994 4.91274 11.5538 4.86717C11.5083 4.8216 11.4464 4.796 11.382 4.796C11.3242 4.79882 11.2692 4.82127 11.2259 4.85964C11.1826 4.898 11.1537 4.94999 11.144 5.007Z" fill="#37A72E"/>
<defs>
<linearGradient id="paint0_linear_119_10" x1="30.3969" y1="2.43314" x2="42.8131" y2="2.43314" gradientUnits="userSpaceOnUse">
<stop stop-color="#00A0E5"/>
<stop offset="1" stop-color="#0077C3"/>
</linearGradient>
</defs>
</svg>
