<svg width="48" height="21" viewBox="0 0 48 21" fill="none" xmlns="http://www.w3.org/2000/svg">
<path d="M3.375 8.79697C3.375 8.27697 3.801 8.07397 4.508 8.07397C5.52 8.07397 6.801 8.38297 7.813 8.92997V5.79697C6.707 5.35497 5.613 5.18397 4.508 5.18397C1.8 5.18397 0 6.59397 0 8.95697C0 12.637 5.066 12.047 5.066 13.637C5.066 14.25 4.536 14.449 3.786 14.449C2.68 14.449 1.266 13.996 0.148 13.383V16.555C1.29596 17.0534 2.53353 17.3123 3.785 17.316C6.559 17.316 8.465 15.941 8.465 13.555C8.453 9.58197 3.375 10.289 3.375 8.79697ZM12.387 2.51597L9.133 3.20697L9.121 13.891C9.121 15.863 10.601 17.316 12.574 17.316C13.668 17.316 14.464 17.117 14.906 16.875V14.168C14.48 14.344 12.375 14.957 12.375 12.98V8.24997H14.906V5.40997H12.375L12.387 2.51597ZM19.055 6.39497L18.84 5.40997H15.96V17.074H19.293V9.16797C20.078 8.14097 21.414 8.32797 21.828 8.47697V5.40997C21.398 5.24997 19.84 4.95697 19.055 6.39497ZM22.641 5.40997H25.988V17.074H22.641V5.40997ZM22.641 4.39497L25.988 3.67497V0.969971L22.641 1.67697V4.39497ZM32.945 5.18397C31.641 5.18397 30.801 5.79697 30.332 6.22297L30.16 5.39497H27.227V20.94L30.559 20.233L30.574 16.46C31.054 16.808 31.762 17.3 32.934 17.3C35.32 17.3 37.492 15.382 37.492 11.155C37.48 7.28797 35.282 5.18397 32.945 5.18397ZM32.148 14.366C31.359 14.366 30.895 14.089 30.574 13.741L30.559 8.79597C30.906 8.40897 31.387 8.13997 32.149 8.13997C33.359 8.13997 34.199 9.50297 34.199 11.249C34.199 13.034 33.374 14.366 32.148 14.366ZM48 11.29C48 7.87597 46.348 5.18497 43.188 5.18497C40.012 5.18497 38.094 7.87597 38.094 11.263C38.094 15.278 40.359 17.302 43.614 17.302C45.199 17.302 46.398 16.942 47.309 16.435V13.77C46.399 14.223 45.359 14.504 44.039 14.504C42.746 14.504 41.602 14.047 41.453 12.477H47.973C47.973 12.301 48 11.609 48 11.289M41.414 10.023C41.414 8.51597 42.332 7.89097 43.172 7.89097C43.988 7.89097 44.852 8.51597 44.852 10.023H41.414Z" fill="#6772E5"/>
</svg>
