<svg width="40" height="40" viewBox="0 0 40 40" fill="none" xmlns="http://www.w3.org/2000/svg">
<path d="M20 40C31.0457 40 40 31.0457 40 20C40 8.9543 31.0457 0 20 0C8.9543 0 0 8.9543 0 20C0 31.0457 8.9543 40 20 40Z" fill="#26A69A"/>
<path d="M29 9H11V14H29V9Z" fill="white"/>
<path d="M20 17C15.543 17 8 17.737 8 20.5C8 23.263 15.543 24 20 24C24.457 24 32 23.263 32 20.5C32 17.737 24.457 17 20 17ZM20 22C14.477 22 10 21.105 10 20C10 18.895 14.477 18 20 18C25.523 18 30 18.895 30 20C30 21.105 25.523 22 20 22Z" fill="white"/>
<path d="M20 20C21.095 20 22.093 19.963 23 19.902V9H17V19.902C17.907 19.963 18.905 20 20 20Z" fill="white"/>
<path d="M21.723 21.968C21.612 21.972 21.5 21.975 21.387 21.978C20.932 21.991 20.472 22 20 22C19.528 22 19.068 21.991 18.613 21.979C18.5 21.976 18.388 21.973 18.277 21.969C17.842 21.954 17.414 21.935 17 21.909V32H23V21.908C22.586 21.934 22.158 21.953 21.723 21.968Z" fill="white"/>
</svg>
