<svg width="76" height="60" viewBox="0 0 76 60" fill="none" xmlns="http://www.w3.org/2000/svg">
<path d="M8.47696 51.2491C6.68005 51.2491 5.47092 52.624 5.47092 54.3918C5.47092 56.1595 6.68005 57.5344 8.47696 57.5344C10.2739 57.5344 11.483 56.1595 11.483 54.3918C11.4662 52.624 10.2571 51.2491 8.47696 51.2491ZM8.07392 49.3013C9.51816 49.3013 10.7273 50.0215 11.2983 50.8072V49.4978H13.515V59.3022H11.8021C11.6686 59.3018 11.5407 59.2499 11.4463 59.1579C11.3519 59.0659 11.2987 58.9412 11.2983 58.8111V57.9927C10.7273 58.7784 9.53495 59.4986 8.07392 59.4986C5.31977 59.4986 3.22058 57.2071 3.22058 54.4081C3.22058 51.6092 5.30298 49.3013 8.07392 49.3013ZM16.0341 49.4978H18.2508V50.8236C18.8554 49.8415 19.9973 49.3013 21.3072 49.3013C23.6415 49.3013 25.153 50.9054 25.153 53.3933V59.3022H23.4568C23.3233 59.3018 23.1954 59.2499 23.101 59.1579C23.0066 59.0659 22.9534 58.9412 22.953 58.8111V53.7534C22.953 52.1985 22.1469 51.2655 20.8538 51.2655C19.3928 51.2655 18.2508 52.3785 18.2508 54.4736V59.3022H16.5547C16.4212 59.3018 16.2932 59.2499 16.1989 59.1579C16.1045 59.0659 16.0513 58.9412 16.0509 58.8111L16.0341 49.4978ZM32.1391 51.2491C30.3422 51.2491 29.133 52.624 29.133 54.3918C29.133 56.1595 30.3422 57.5344 32.1391 57.5344C33.936 57.5344 35.1451 56.1595 35.1451 54.3918C35.1451 52.624 33.936 51.2491 32.1391 51.2491ZM31.736 49.3013C33.1803 49.3013 34.3894 50.0215 34.9604 50.8072V44.5874H37.1771V59.3022H35.481C35.3475 59.3018 35.2196 59.2499 35.1252 59.1579C35.0308 59.0659 34.9776 58.9412 34.9772 58.8111V57.9927C34.4062 58.7784 33.2139 59.4986 31.7528 59.4986C28.9987 59.4986 26.8995 57.2071 26.8995 54.4081C26.8995 51.6092 28.9819 49.3013 31.736 49.3013ZM39.6962 49.4978H41.9129V51.2491C42.1076 50.7131 42.4665 50.2482 42.941 49.9174C43.4156 49.5867 43.9829 49.4059 44.5663 49.3995C44.8541 49.3943 45.1415 49.4218 45.4228 49.4814V51.6911C45.0654 51.5744 44.6913 51.5136 44.3144 51.511C43.0549 51.511 41.8961 52.5586 41.8961 54.5064V59.2858H40.2C40.0665 59.2854 39.9386 59.2336 39.8442 59.1416C39.7498 59.0496 39.6966 58.9249 39.6962 58.7948V49.4978ZM51.3845 57.4853C53.1478 57.4853 54.4073 56.1268 54.4073 54.3918C54.4073 52.6404 53.1646 51.2982 51.3845 51.2982C49.5876 51.2982 48.3448 52.6568 48.3448 54.3918C48.3616 56.1432 49.5876 57.4853 51.3845 57.4853ZM51.3845 59.4986C50.3513 59.4905 49.3436 59.1845 48.4887 58.619C47.6337 58.0535 46.9697 57.2539 46.5804 56.321C46.1912 55.3882 46.094 54.3638 46.3013 53.3773C46.5085 52.3907 47.0109 51.486 47.745 50.7773C48.4791 50.0686 49.4121 49.5877 50.4263 49.3952C51.4404 49.2027 52.4904 49.3072 53.4437 49.6956C54.397 50.0839 55.211 50.7387 55.783 51.5774C56.355 52.4161 56.6593 53.4011 56.6577 54.4081C56.6611 55.0817 56.5267 55.7492 56.2623 56.3716C55.9979 56.9939 55.6088 57.5586 55.1178 58.0326C54.6268 58.5066 54.0437 58.8804 53.4026 59.1321C52.7616 59.3839 52.0755 59.5084 51.3845 59.4986ZM58.4546 49.4978H60.6713V59.3022H58.9752C58.8417 59.3018 58.7138 59.2499 58.6194 59.1579C58.525 59.0659 58.4718 58.9412 58.4714 58.8111L58.4546 49.4978ZM59.5629 47.3535C59.1677 47.3499 58.7897 47.1953 58.5102 46.9229C58.2307 46.6505 58.072 46.282 58.0683 45.8968C58.0762 45.5159 58.2373 45.1532 58.5168 44.8869C58.7964 44.6206 59.172 44.4718 59.5629 44.4728C59.9549 44.4728 60.3308 44.6245 60.6079 44.8947C60.8851 45.1648 61.0408 45.5312 61.0408 45.9132C61.0408 46.2952 60.8851 46.6615 60.6079 46.9317C60.3308 47.2018 59.9549 47.3535 59.5629 47.3535ZM67.7414 51.2491C65.9445 51.2491 64.7353 52.624 64.7353 54.3918C64.7353 56.1595 65.9445 57.5344 67.7414 57.5344C69.5383 57.5344 70.7474 56.1595 70.7474 54.3918C70.7138 52.624 69.5383 51.2491 67.7414 51.2491ZM67.3383 49.3013C68.7826 49.3013 69.9917 50.0215 70.5627 50.8072V44.5874H72.7795V59.3022H71.0833C70.9498 59.3018 70.8219 59.2499 70.7275 59.1579C70.6331 59.0659 70.5799 58.9412 70.5795 58.8111V57.9927C70.0085 58.7784 68.8162 59.4986 67.3551 59.4986C64.601 59.4986 62.5018 57.2071 62.5018 54.4081C62.5018 51.6092 64.5842 49.3013 67.3383 49.3013Z" fill="black"/>
<path d="M55.0455 11.6877L60.8392 1.91598C60.9946 1.64711 61.0351 1.32942 60.9519 1.03169C60.8687 0.733953 60.6685 0.480137 60.3947 0.325189C60.1209 0.17024 59.7955 0.126628 59.489 0.203794C59.1824 0.280961 58.9194 0.472696 58.7568 0.73749L52.8959 10.6237C48.2175 8.57378 43.1463 7.51384 38.0168 7.51384C32.8873 7.51384 27.8162 8.57378 23.1377 10.6237L17.2768 0.73749C17.1142 0.472696 16.8512 0.280961 16.5446 0.203794C16.2381 0.126628 15.9127 0.17024 15.6389 0.325189C15.3651 0.480137 15.165 0.733953 15.0818 1.03169C14.9986 1.32942 15.039 1.64711 15.1944 1.91598L20.9882 11.6877C10.996 16.9582 4.2114 26.7626 3.22058 38.3347H72.7459C71.755 26.7626 64.9537 16.9582 55.0455 11.6877ZM21.9958 28.6776C21.4245 28.6776 20.866 28.5125 20.391 28.2032C19.916 27.8938 19.5458 27.4541 19.3271 26.9397C19.1085 26.4253 19.0513 25.8592 19.1628 25.3131C19.2742 24.767 19.5493 24.2654 19.9533 23.8716C20.3573 23.4779 20.8719 23.2098 21.4322 23.1011C21.9926 22.9925 22.5733 23.0483 23.1011 23.2613C23.6289 23.4744 24.0801 23.8353 24.3975 24.2982C24.7148 24.7612 24.8843 25.3055 24.8843 25.8623C24.8843 26.609 24.5799 27.3251 24.0382 27.853C23.4965 28.381 22.7618 28.6776 21.9958 28.6776ZM54.0043 28.6776C53.433 28.6776 52.8745 28.5125 52.3995 28.2032C51.9245 27.8938 51.5543 27.4541 51.3356 26.9397C51.117 26.4253 51.0598 25.8592 51.1713 25.3131C51.2827 24.767 51.5578 24.2654 51.9618 23.8716C52.3658 23.4779 52.8804 23.2098 53.4408 23.1011C54.0011 22.9925 54.5818 23.0483 55.1096 23.2613C55.6374 23.4744 56.0886 23.8353 56.406 24.2982C56.7234 24.7612 56.8928 25.3055 56.8928 25.8623C56.8928 26.609 56.5884 27.3251 56.0467 27.853C55.505 28.381 54.7703 28.6776 54.0043 28.6776Z" fill="#3DDC84"/>
</svg>
