<svg width="26" height="26" viewBox="0 0 26 26" fill="none" xmlns="http://www.w3.org/2000/svg">
<path d="M5.7128 7.73403C2.84317 8.38332 1.40836 8.70796 1.06699 9.80569C0.725626 10.9034 1.70379 12.0473 3.66012 14.3349L4.16624 14.9267C4.72217 15.5768 5.00013 15.9018 5.12517 16.304C5.25023 16.7061 5.2082 17.1398 5.12415 18.0072L5.04764 18.7968C4.75186 21.849 4.60398 23.3751 5.49768 24.0536C6.39138 24.732 7.7348 24.1134 10.4217 22.8764L11.1168 22.5563C11.8802 22.2048 12.262 22.0289 12.6667 22.0289C13.0714 22.0289 13.4531 22.2048 14.2166 22.5563L14.9117 22.8764C17.5985 24.1134 18.9419 24.732 19.8357 24.0536C20.7294 23.3751 20.5815 21.849 20.2857 18.7968M21.6732 14.3349C23.6296 12.0473 24.6077 10.9034 24.2664 9.80569C23.925 8.70796 22.4901 8.38332 19.6206 7.73403L18.8781 7.56606C18.0626 7.38155 17.655 7.2893 17.3276 7.04078C17.0001 6.79226 16.7903 6.41558 16.3703 5.66227L15.9879 4.97643C14.5102 2.32547 13.7714 1 12.6667 1C11.562 1 10.8231 2.32549 9.34536 4.97644" stroke="#FAA820" stroke-width="1.7" stroke-linecap="round"/>
</svg>
