<svg width="100" height="60" viewBox="0 0 100 60" fill="none" xmlns="http://www.w3.org/2000/svg">
<path d="M3.49484 4.88558C3.49484 5.92298 2.82483 6.69041 1.67543 6.69041C0.718273 6.69041 0 5.92298 0 4.88558C0 3.89217 0.765729 3.07999 1.77115 3.07999C2.82483 3.07999 3.49484 3.89217 3.49484 4.88558ZM0.845358 59.1328V17.6369H2.64949V59.1328H0.845358ZM62.6562 29.567C62.6562 50.4878 50.3378 59.9981 36.8539 59.9981C23.0796 59.9981 11.9251 49.7113 11.9251 30.4323C11.9251 10.6368 23.4681 0.00268571 37.8239 0.00268571C51.8886 0.00116905 62.6562 10.4616 62.6562 29.567ZM13.7534 29.9992C13.7534 45.862 21.9077 58.1849 36.9392 58.1849C52.0752 58.1849 60.7564 45.4829 60.7564 29.8188C60.7564 15.2929 53.8005 2.03653 37.9277 2.03653C22.0549 2.03653 13.7534 14.5179 13.7534 29.9992ZM69.2775 54.6367C72.3043 56.5386 77.5284 58.3753 82.0215 58.3753C90.549 58.3753 98.1331 52.7507 98.1331 44.472C98.1331 36.7893 93.0811 32.7808 84.5036 29.3372C76.8271 26.2554 69.925 22.9104 69.925 14.6976C69.925 6.13986 77.0764 0.0868605 86.796 0.0868605C92.0226 0.0868605 95.9654 1.47006 97.7993 2.68035L97.0706 4.17275C95.5118 3.13611 91.2987 1.8151 86.7156 1.8151C76.4434 1.8151 71.9689 9.133 71.9689 14.5202C71.9689 21.9609 78.0866 24.449 85.9724 27.9935C95.141 32.2287 100 35.9635 100 44.0906C100 52.822 93.3988 59.9094 81.6619 59.9094C76.8013 59.9094 71.2088 58.354 68.4579 56.3649L69.2775 54.6367Z" fill="black"/>
</svg>
