<svg width="104" height="34" xmlns="http://www.w3.org/2000/svg" fill="none">

 <g>
  <title>Layer 1</title>
  <path id="svg_1" fill="#1C0000" d="m2.1988,13.7516c0.0532,-0.3038 0.19,-0.5925 0.4102,-0.8658c0.2203,-0.281 0.49,-0.5052 0.809,-0.6722c0.3266,-0.1672 0.6798,-0.2507 1.0595,-0.2507c0.5393,0 1.0255,0.1595 1.4583,0.4785c0.4407,0.319 0.733,0.7177 0.8773,1.1964l2.7572,9.2398l0.0455,0l2.7572,-9.2398c0.0911,-0.3039 0.2506,-0.5812 0.4785,-0.8319c0.228,-0.2581 0.5051,-0.4633 0.8318,-0.6151c0.3418,-0.152 0.6797,-0.2279 1.014,-0.2279c0.3645,0 0.714,0.0835 1.0482,0.2507c0.3341,0.167 0.6151,0.3912 0.843,0.6722c0.2051,0.2658 0.338,0.5545 0.3988,0.8658l2.1762,13.0225c0.0151,0.2278 0.0226,0.3608 0.0226,0.3987c0,0.4938 -0.1595,0.8963 -0.4785,1.2078c-0.319,0.3113 -0.7215,0.467 -1.2076,0.467c-0.562,0 -0.9837,-0.1253 -1.2647,-0.376c-0.281,-0.2582 -0.4672,-0.676 -0.5582,-1.2532l-1.3673,-9.502l-0.0568,0l-2.7914,9.7869c-0.2735,0.8963 -0.8963,1.3443 -1.8685,1.3443c-0.9875,0 -1.6103,-0.448 -1.8685,-1.3443l-2.8028,-9.7869l-0.0455,0l-1.3787,9.502c-0.0835,0.5772 -0.2658,0.995 -0.5468,1.2532c-0.281,0.2507 -0.7025,0.376 -1.2647,0.376c-0.486,0 -0.8886,-0.1557 -1.2076,-0.467c-0.319,-0.3115 -0.4785,-0.714 -0.4785,-1.2078c0,-0.0379 0.0076,-0.1709 0.0228,-0.3987l2.176,-13.0225zm21.7072,13.9795l-3.7142,-9.2627c-0.1065,-0.3418 -0.1597,-0.6305 -0.1597,-0.8658c0,-0.2507 0.076,-0.4862 0.228,-0.7065c0.1519,-0.2278 0.357,-0.4102 0.6152,-0.5468c0.243,-0.1292 0.49,-0.1937 0.7405,-0.1937c0.4027,0 0.7482,0.1063 1.0368,0.319c0.2962,0.205 0.5127,0.4975 0.6495,0.8773l2.3014,6.3232l2.4723,-6.3232c0.3342,-0.7975 0.8963,-1.1963 1.6862,-1.1963c0.2583,0 0.509,0.0645 0.752,0.1937c0.243,0.1291 0.4443,0.3038 0.6038,0.5241c0.152,0.2202 0.2278,0.4634 0.2278,0.7292c0,0.3038 -0.0531,0.5923 -0.1595,0.8658l-5.6281,14.0024c-0.357,0.881 -0.8849,1.3215 -1.5837,1.3215c-0.3342,0 -0.6343,-0.0645 -0.9002,-0.1937c-0.2658,-0.1292 -0.4746,-0.3077 -0.6265,-0.5355c-0.152,-0.2202 -0.228,-0.4595 -0.228,-0.7177c0,-0.2963 0.0722,-0.6228 0.2165,-0.9798l1.4699,-3.6345z"/>
  <path id="svg_2" fill="#FAA820" d="m31.762,4.3555c-0.1822,-0.5468 -0.2734,-1.0417 -0.2734,-1.4843c0,-0.5339 0.1367,-1.0157 0.4102,-1.4454c0.2863,-0.4296 0.6705,-0.7811 1.1523,-1.0546c0.4427,-0.2474 0.9505,-0.3712 1.5234,-0.3712c1.172,0 2.0768,0.6512 2.7148,1.9532l6.1915,16.6406l6.2108,-16.6406c0.599,-1.302 1.504,-1.9532 2.715,-1.9532c0.5469,0 1.0547,0.1303 1.5234,0.3907c0.4818,0.2473 0.866,0.586 1.1523,1.0156c0.2735,0.4427 0.4102,0.931 0.4102,1.4649c0,0.4948 -0.0977,0.9895 -0.293,1.4843l-8.75,22.2852c-0.3515,0.8203 -0.7487,1.4128 -1.1914,1.7773c-0.4426,0.3517 -1.0351,0.5273 -1.7773,0.5273c-0.7422,0 -1.3347,-0.1691 -1.7773,-0.5078c-0.4297,-0.3515 -0.8204,-0.9505 -1.1719,-1.7968l-8.7696,-22.2852zm25.685,-0.996c0,-0.9767 0.2733,-1.7383 0.8203,-2.2852c0.5598,-0.56 1.328,-0.8398 2.3047,-0.8398l7.0703,0c1.94,0 3.6978,0.4035 5.2733,1.2108c1.5885,0.8074 2.8125,1.9272 3.6719,3.3594c0.8725,1.4583 1.3088,3.1185 1.3088,4.9805c0,1.3933 -0.254,2.6823 -0.7618,3.8671c-0.5079,1.185 -1.2305,2.2072 -2.168,3.0665c-0.9115,0.8204 -1.9792,1.4519 -3.2032,1.8945c-1.224,0.4427 -2.513,0.664 -3.8672,0.664l-4.4531,0l0,6.5625c0,0.9637 -0.2734,1.7254 -0.8204,2.2852c-0.5338,0.547 -1.2565,0.8203 -2.1678,0.8203c-0.8985,0 -1.6277,-0.2798 -2.1875,-0.8398c-0.547,-0.5728 -0.8203,-1.3282 -0.8203,-2.2657l0,-22.4803zm5.996,2.1483l0,8.4767l4.082,0c0.8073,0 1.5235,-0.1758 2.1485,-0.5273c0.625,-0.3647 1.1133,-0.8725 1.4648,-1.5235c0.3385,-0.651 0.5078,-1.3802 0.5078,-2.1875c0,-0.7944 -0.1693,-1.517 -0.5078,-2.168c-0.3385,-0.651 -0.8203,-1.1589 -1.4453,-1.5235c-0.5989,-0.3645 -1.3215,-0.5469 -2.168,-0.5469l-4.082,0zm16.3683,-2.4023c0,-0.9505 0.274,-1.7057 0.82,-2.2657c0.547,-0.5598 1.27,-0.8398 2.168,-0.8398c0.417,0 0.879,0.1303 1.387,0.3907c0.508,0.2605 0.886,0.5665 1.133,0.918l12.695,16.914l0.078,0l0,-15.1172c0,-0.9505 0.274,-1.7057 0.821,-2.2657c0.547,-0.5598 1.269,-0.8398 2.168,-0.8398c0.911,0 1.64,0.28 2.187,0.8398c0.547,0.547 0.821,1.3022 0.821,2.2657l0,22.7343c0,0.9637 -0.274,1.7254 -0.821,2.2852c-0.547,0.547 -1.276,0.8203 -2.187,0.8203c-0.365,0 -0.801,-0.1301 -1.309,-0.3906c-0.495,-0.2604 -0.898,-0.5664 -1.211,-0.9179l-12.675,-16.7188l-0.079,0l0,14.9218c0,0.9637 -0.273,1.7254 -0.82,2.2852c-0.547,0.547 -1.276,0.8203 -2.188,0.8203c-0.898,0 -1.621,-0.2798 -2.168,-0.8398c-0.546,-0.5598 -0.82,-1.315 -0.82,-2.2657l0,-22.7343z"/>
 </g>
</svg>