<svg width="60" height="60" xmlns="http://www.w3.org/2000/svg" fill="none">

 <g>
  <title>Layer 1</title>
  <path stroke="null" id="svg_1" fill="#fcdeaa" d="m35.7562,11.1547c7.5451,2.5031 12.9938,9.7781 12.9938,18.3394c0,10.62 -8.3887,19.2656 -18.75,19.2656c-10.3612,0 -18.75,-8.6456 -18.75,-19.2656c0,-8.5613 5.4488,-15.8363 12.9938,-18.3394c0.9824,-0.3262 1.5149,-1.38748 1.1906,-2.36998c-0.3263,-0.9825 -1.3875,-1.515 -2.37,-1.18875c-9.0207,2.99063 -15.5644,11.66433 -15.5644,21.89813c0,12.7162 10.095,23.0156 22.5,23.0156c12.405,0 22.5,-10.2994 22.5,-23.0156c0,-10.2338 -6.5438,-18.9075 -15.5644,-21.89813c-0.9825,-0.32625 -2.0437,0.20625 -2.37,1.18875c-0.3244,0.9825 0.2082,2.04378 1.1906,2.36998z" clip-rule="evenodd" fill-rule="evenodd"/>
  <path stroke="null" id="svg_2" fill="#fcdeaa" d="m28.1211,5.625l0,7.5c0,1.035 0.84,1.875 1.875,1.875c1.035,0 1.875,-0.84 1.875,-1.875l0,-7.5c0,-1.035 -0.84,-1.875 -1.875,-1.875c-1.035,0 -1.875,0.84 -1.875,1.875z" clip-rule="evenodd" fill-rule="evenodd"/>
 </g>
</svg>