<svg width="60" height="60" viewBox="0 0 60 60" fill="none" xmlns="http://www.w3.org/2000/svg">
<path fill-rule="evenodd" clip-rule="evenodd" d="M35.7562 11.1547C43.3013 13.6578 48.75 20.9328 48.75 29.4941C48.75 40.1141 40.3613 48.7597 30 48.7597C19.6388 48.7597 11.25 40.1141 11.25 29.4941C11.25 20.9328 16.6988 13.6578 24.2438 11.1547C25.2262 10.8285 25.7587 9.76722 25.4344 8.78472C25.1081 7.80222 24.0469 7.26972 23.0644 7.59597C14.0437 10.5866 7.5 19.2603 7.5 29.4941C7.5 42.2103 17.595 52.5097 30 52.5097C42.405 52.5097 52.5 42.2103 52.5 29.4941C52.5 19.2603 45.9562 10.5866 36.9356 7.59597C35.9531 7.26972 34.8919 7.80222 34.5656 8.78472C34.2412 9.76722 34.7738 10.8285 35.7562 11.1547Z" fill="#FEFDF8"/>
<path fill-rule="evenodd" clip-rule="evenodd" d="M28.1211 5.625V13.125C28.1211 14.16 28.9611 15 29.9961 15C31.0311 15 31.8711 14.16 31.8711 13.125V5.625C31.8711 4.59 31.0311 3.75 29.9961 3.75C28.9611 3.75 28.1211 4.59 28.1211 5.625Z" fill="#FEFDF8"/>
</svg>
