<svg width="124" height="124" viewBox="0 0 124 124" fill="none" xmlns="http://www.w3.org/2000/svg">
<path d="M88.4199 8.66504C89.0279 7.4377 88.5276 5.94501 87.2769 5.38658C75.4537 0.107455 62.2516 -1.34565 49.5274 1.26752C35.992 4.04727 23.7732 11.2689 14.8107 21.7859C5.84826 32.3029 0.655926 45.5125 0.0580617 59.3174C-0.539802 73.1223 3.49108 86.7313 11.5107 97.9838C19.5304 109.236 31.0792 117.487 44.3235 121.427C57.5679 125.366 71.7487 124.769 84.6146 119.729C97.4804 114.688 108.294 105.495 115.338 93.6075C121.96 82.4324 124.895 69.4789 123.763 56.5801C123.643 55.2157 122.395 54.2557 121.037 54.4299V54.4299C119.678 54.6041 118.724 55.8466 118.839 57.2114C119.833 69.0128 117.13 80.8549 111.071 91.0789C104.59 102.015 94.642 110.473 82.8054 115.11C70.9688 119.747 57.9224 120.297 45.7376 116.673C33.5528 113.048 22.928 105.457 15.5499 95.1051C8.17179 84.7528 4.46338 72.2325 5.01342 59.532C5.56345 46.8315 10.3404 34.6787 18.5859 25.0031C26.8313 15.3274 38.0727 8.68349 50.5252 6.12612C62.1665 3.73535 74.2425 5.04413 85.0735 9.83508C86.3261 10.3892 87.812 9.89238 88.4199 8.66504V8.66504Z" fill="#E8E8E8"/>
</svg>
